<svg width="16" height="16" viewBox="0 0 16 16" fill="none" xmlns="http://www.w3.org/2000/svg">
<path fill-rule="evenodd" clip-rule="evenodd" d="M16 7.44828C16 11.5553 12.4112 14.8966 8 14.8966C6.8632 14.8966 5.7656 14.6786 4.7352 14.2486C2.92027 15.3321 0.411733 15.7057 0.303733 15.7214C0.2912 15.7233 0.278934 15.7241 0.266667 15.7241C0.166667 15.7241 0.0733351 15.6659 0.0280017 15.5713C-0.0231983 15.4651 -0.00293173 15.3368 0.0781349 15.2532C0.691468 14.6188 1.11387 13.2803 1.27147 11.477C0.438934 10.2745 9.53674e-07 8.88386 9.53674e-07 7.44828C9.53674e-07 3.34124 3.5888 0 8 0C12.4112 0 16 3.34124 16 7.44828V7.44828ZM5.33334 7.44828C5.33334 6.83972 4.85494 6.34483 4.26667 6.34483C3.6784 6.34483 3.2 6.83972 3.2 7.44828C3.2 8.05683 3.6784 8.55172 4.26667 8.55172C4.85494 8.55172 5.33334 8.05683 5.33334 7.44828V7.44828ZM9.06667 7.44828C9.06667 6.83972 8.58827 6.34483 8 6.34483C7.41174 6.34483 6.93334 6.83972 6.93334 7.44828C6.93334 8.05683 7.41174 8.55172 8 8.55172C8.58827 8.55172 9.06667 8.05683 9.06667 7.44828V7.44828ZM12.8 7.44828C12.8 6.83972 12.3216 6.34483 11.7333 6.34483C11.1451 6.34483 10.6667 6.83972 10.6667 7.44828C10.6667 8.05683 11.1451 8.55172 11.7333 8.55172C12.3216 8.55172 12.8 8.05683 12.8 7.44828V7.44828Z" fill="#D3D3D3"/>
</svg>
